ply
format ascii 1.0
comment Created by Blender 2.74 (sub 0) - www.blender.org, source file: 'figure.blend'
element vertex 96
property float x
property float y
property float z
property float nx
property float ny
property float nz
property uchar red
property uchar green
property uchar blue
element face 28
property list uchar uint vertex_indices
end_header
0.000000 0.137171 0.651619 0.000000 0.000000 -1.000000 134 102 85
-0.000000 -0.137171 0.651619 0.000000 0.000000 -1.000000 134 102 85
-0.201877 -0.137171 0.651619 0.000000 0.000000 -1.000000 134 102 85
-0.201877 0.137171 0.651619 0.000000 0.000000 -1.000000 134 102 85
-0.000000 0.137171 1.455237 0.000000 -0.000000 1.000000 185 141 118
-0.128434 0.137171 1.455237 0.000000 -0.000000 1.000000 184 140 117
-0.128434 -0.137171 1.455237 0.000000 -0.000000 1.000000 185 141 118
-0.000000 -0.137171 1.455237 0.000000 -0.000000 1.000000 185 141 118
0.300144 0.162512 1.388225 0.363556 -0.000000 0.931572 140 107 89
0.128433 0.137171 1.455237 0.363556 -0.000000 0.931572 185 141 118
0.128433 -0.137171 1.455237 0.363556 -0.000000 0.931572 185 141 118
0.300144 -0.162513 1.388225 0.363556 -0.000000 0.931572 185 141 118
-0.000000 -0.162513 1.388225 -0.000000 -0.935353 0.353717 166 126 106
-0.000000 -0.137171 1.455237 -0.000000 -0.935353 0.353717 185 141 118
-0.128434 -0.137171 1.455237 -0.000000 -0.935353 0.353717 185 141 118
-0.300144 -0.162512 1.388225 -0.000000 -0.935353 0.353717 176 134 112
-0.300144 -0.162512 1.388225 -0.363556 0.000000 0.931572 176 134 112
-0.128434 -0.137171 1.455237 -0.363556 0.000000 0.931572 185 141 118
-0.128434 0.137171 1.455237 -0.363556 0.000000 0.931572 184 140 117
-0.300144 0.162512 1.388225 -0.363556 0.000000 0.931572 175 133 113
0.000000 0.187323 1.086612 0.000000 0.993419 -0.114535 134 102 85
0.000000 0.137171 0.651619 0.000000 0.993419 -0.114535 134 102 85
-0.201877 0.137171 0.651619 0.000000 0.993419 -0.114535 134 102 85
-0.305612 0.187323 1.086612 0.000000 0.993419 -0.114535 134 102 85
0.000000 0.176861 1.312743 0.000000 0.998931 0.046214 134 102 85
0.000000 0.187323 1.086612 0.000000 0.998931 0.046214 134 102 85
-0.305612 0.187323 1.086612 0.000000 0.998931 0.046214 134 102 85
-0.361591 0.176861 1.312743 0.000000 0.998931 0.046214 135 102 85
-0.201877 -0.137171 0.651619 -0.972723 0.000000 -0.231971 135 103 85
-0.305612 -0.187323 1.086612 -0.972723 0.000000 -0.231971 163 124 104
-0.305612 0.187323 1.086612 -0.972723 0.000000 -0.231971 134 102 85
-0.201877 0.137171 0.651619 -0.972723 0.000000 -0.231971 134 102 85
-0.000000 -0.137171 0.651619 -0.000000 -0.993419 -0.114536 185 141 118
-0.000000 -0.187323 1.086612 -0.000000 -0.993419 -0.114536 147 112 94
-0.305612 -0.187323 1.086612 -0.000000 -0.993419 -0.114536 163 124 104
-0.201877 -0.137171 0.651619 -0.000000 -0.993419 -0.114536 135 103 85
0.201877 0.137171 0.651619 0.972723 -0.000000 -0.231971 139 105 88
0.305612 0.187323 1.086612 0.972723 -0.000000 -0.231971 134 102 85
0.305612 -0.187323 1.086612 0.972723 -0.000000 -0.231971 185 141 118
0.201877 -0.137171 0.651619 0.972723 -0.000000 -0.231971 143 109 91
0.000000 0.162512 1.388225 0.000000 0.982407 0.186754 141 107 89
0.000000 0.176861 1.312743 0.000000 0.982407 0.186754 134 102 85
-0.361591 0.176861 1.312743 0.000000 0.982407 0.186754 135 102 85
-0.300144 0.162512 1.388225 0.000000 0.982407 0.186754 176 134 114
-0.305612 -0.187323 1.086612 -0.970699 0.000001 -0.240300 163 124 104
-0.361592 -0.176861 1.312743 -0.970699 0.000001 -0.240300 137 105 87
-0.361591 0.176861 1.312743 -0.970699 0.000001 -0.240300 135 102 85
-0.305612 0.187323 1.086612 -0.970699 0.000001 -0.240300 134 102 85
-0.000000 -0.187323 1.086612 -0.000000 -0.998931 0.046214 147 112 94
-0.000000 -0.176861 1.312743 -0.000000 -0.998931 0.046214 136 104 87
-0.361592 -0.176861 1.312743 -0.000000 -0.998931 0.046214 137 105 87
-0.305612 -0.187323 1.086612 -0.000000 -0.998931 0.046214 163 124 104
0.305612 0.187323 1.086612 0.970699 -0.000001 -0.240300 134 102 85
0.361592 0.176861 1.312743 0.970699 -0.000001 -0.240300 134 102 85
0.361591 -0.176861 1.312743 0.970699 -0.000001 -0.240300 185 141 118
0.305612 -0.187323 1.086612 0.970699 -0.000001 -0.240300 185 141 118
-0.000000 0.137171 1.455237 0.000000 0.935353 0.353716 185 141 118
0.000000 0.162512 1.388225 0.000000 0.935353 0.353716 141 107 89
-0.300144 0.162512 1.388225 0.000000 0.935353 0.353716 176 134 114
-0.128434 0.137171 1.455237 0.000000 0.935353 0.353716 184 140 117
-0.361592 -0.176861 1.312743 -0.775517 0.000000 0.631327 137 105 87
-0.300144 -0.162512 1.388225 -0.775517 0.000000 0.631327 176 134 112
-0.300144 0.162512 1.388225 -0.775517 0.000000 0.631327 175 133 113
-0.361591 0.176861 1.312743 -0.775517 0.000000 0.631327 135 102 85
-0.000000 -0.176861 1.312743 -0.000000 -0.982407 0.186753 136 104 87
-0.000000 -0.162513 1.388225 -0.000000 -0.982407 0.186753 166 126 106
-0.300144 -0.162512 1.388225 -0.000000 -0.982407 0.186753 176 134 112
-0.361592 -0.176861 1.312743 -0.000000 -0.982407 0.186753 137 105 87
0.361592 0.176861 1.312743 0.775516 -0.000001 0.631327 134 102 85
0.300144 0.162512 1.388225 0.775516 -0.000001 0.631327 140 107 89
0.300144 -0.162513 1.388225 0.775516 -0.000001 0.631327 185 141 118
0.361591 -0.176861 1.312743 0.775516 -0.000001 0.631327 185 141 118
0.361591 -0.176861 1.312743 -0.000000 -0.982407 0.186753 185 141 118
0.300144 -0.162513 1.388225 -0.000000 -0.982407 0.186753 185 141 118
0.128433 0.137171 1.455237 0.000000 0.935353 0.353717 185 141 118
0.300144 0.162512 1.388225 0.000000 0.935353 0.353717 140 107 89
0.000000 0.162512 1.388225 0.000000 0.935353 0.353717 141 107 89
-0.000000 0.137171 1.455237 0.000000 0.935353 0.353717 185 141 118
0.305612 -0.187323 1.086612 -0.000000 -0.998931 0.046214 185 141 118
0.361591 -0.176861 1.312743 -0.000000 -0.998931 0.046214 185 141 118
0.300144 0.162512 1.388225 0.000000 0.982407 0.186754 140 107 89
0.361592 0.176861 1.312743 0.000000 0.982407 0.186754 134 102 85
0.201877 -0.137171 0.651619 -0.000000 -0.993419 -0.114536 143 109 91
0.305612 -0.187323 1.086612 -0.000000 -0.993419 -0.114536 185 141 118
0.361592 0.176861 1.312743 0.000000 0.998931 0.046214 134 102 85
0.305612 0.187323 1.086612 0.000000 0.998931 0.046214 134 102 85
0.305612 0.187323 1.086612 0.000000 0.993419 -0.114535 134 102 85
0.201877 0.137171 0.651619 0.000000 0.993419 -0.114535 138 105 87
0.300144 -0.162513 1.388225 -0.000000 -0.935353 0.353716 185 141 118
0.128433 -0.137171 1.455237 -0.000000 -0.935353 0.353716 185 141 118
-0.000000 -0.137171 1.455237 -0.000000 -0.935353 0.353716 185 141 118
-0.000000 -0.162513 1.388225 -0.000000 -0.935353 0.353716 166 126 106
0.128433 0.137171 1.455237 0.000000 -0.000000 1.000000 185 141 118
0.128433 -0.137171 1.455237 0.000000 -0.000000 1.000000 185 141 118
0.201877 0.137171 0.651619 0.000000 0.000000 -1.000000 134 102 85
0.201877 -0.137171 0.651619 0.000000 0.000000 -1.000000 134 102 85
4 0 1 2 3
4 4 5 6 7
4 8 9 10 11
4 12 13 14 15
4 16 17 18 19
4 20 21 22 23
4 24 25 26 27
4 28 29 30 31
4 32 33 34 35
4 36 37 38 39
4 40 41 42 43
4 44 45 46 47
4 48 49 50 51
4 52 53 54 55
4 56 57 58 59
4 60 61 62 63
4 64 65 66 67
4 68 69 70 71
4 72 73 65 64
4 74 75 76 77
4 78 79 49 48
4 80 81 41 40
4 82 83 33 32
4 84 85 25 24
4 86 87 21 20
4 88 89 90 91
4 92 4 7 93
4 94 95 1 0
