ply
format ascii 1.0
comment Created by Blender 2.74 (sub 0) - www.blender.org, source file: 'figure.blend'
element vertex 40
property float x
property float y
property float z
property float nx
property float ny
property float nz
property uchar red
property uchar green
property uchar blue
element face 10
property list uchar uint vertex_indices
end_header
-0.246635 -0.583978 -0.230643 0.000000 -1.000000 -0.000000 134 102 85
0.271577 -0.583978 -0.230643 0.000000 -1.000000 -0.000000 134 102 85
0.271577 -0.583978 0.572105 0.000000 -1.000000 -0.000000 134 102 85
-0.246635 -0.583978 0.572105 0.000000 -1.000000 -0.000000 134 102 85
-0.211123 -0.129437 -0.137535 0.000000 1.000000 0.000000 134 102 85
-0.211122 -0.129437 0.137535 0.000000 1.000000 0.000000 134 102 85
0.226264 -0.129437 0.137535 0.000000 1.000000 0.000000 146 111 93
0.226264 -0.129437 -0.137535 0.000000 1.000000 0.000000 134 102 85
-0.272038 -0.326977 -0.251141 -0.955596 0.294681 0.000000 134 102 85
-0.272038 -0.326977 0.592602 -0.955596 0.294681 0.000000 185 141 118
-0.211122 -0.129437 0.137535 -0.955596 0.294681 0.000000 134 102 85
-0.211123 -0.129437 -0.137535 -0.955596 0.294681 0.000000 134 102 85
-0.272038 -0.326977 0.592602 0.000000 0.917303 0.398190 185 141 118
0.296980 -0.326977 0.592602 0.000000 0.917303 0.398190 185 141 118
0.226264 -0.129437 0.137535 0.000000 0.917303 0.398190 146 111 93
-0.211122 -0.129437 0.137535 0.000000 0.917303 0.398190 134 102 85
0.296980 -0.326977 0.592602 0.941490 0.337041 -0.000000 180 137 115
0.296980 -0.326977 -0.251141 0.941490 0.337041 -0.000000 166 127 106
0.226264 -0.129437 -0.137535 0.941490 0.337041 -0.000000 134 102 85
0.226264 -0.129437 0.137535 0.941490 0.337041 -0.000000 134 102 85
0.271577 -0.583978 -0.230643 -0.000000 -0.079504 -0.996835 134 102 85
-0.246635 -0.583978 -0.230643 -0.000000 -0.079504 -0.996835 134 102 85
-0.272038 -0.326977 -0.251141 -0.000000 -0.079504 -0.996835 134 102 85
0.296980 -0.326977 -0.251141 -0.000000 -0.079504 -0.996835 166 127 106
-0.211123 -0.129437 -0.137535 -0.000000 0.498540 -0.866866 134 102 85
0.226264 -0.129437 -0.137535 -0.000000 0.498540 -0.866866 134 102 85
0.296980 -0.326977 -0.251141 -0.000000 0.498540 -0.866866 166 127 106
-0.272038 -0.326977 -0.251141 -0.000000 0.498540 -0.866866 134 102 85
0.271577 -0.583978 0.572105 0.995150 -0.098366 -0.000000 134 102 85
0.271577 -0.583978 -0.230643 0.995150 -0.098366 -0.000000 134 102 85
0.296980 -0.326977 -0.251141 0.995150 -0.098366 -0.000000 166 127 106
0.296980 -0.326977 0.592602 0.995150 -0.098366 -0.000000 180 137 115
-0.246635 -0.583978 0.572105 0.000000 -0.079504 0.996835 134 102 85
0.271577 -0.583978 0.572105 0.000000 -0.079504 0.996835 179 136 114
0.296980 -0.326977 0.592602 0.000000 -0.079504 0.996835 185 141 118
-0.272038 -0.326977 0.592602 0.000000 -0.079504 0.996835 185 141 118
-0.246635 -0.583978 -0.230643 -0.995150 -0.098366 0.000000 134 102 85
-0.246635 -0.583978 0.572105 -0.995150 -0.098366 0.000000 134 102 85
-0.272038 -0.326977 0.592602 -0.995150 -0.098366 0.000000 185 141 118
-0.272038 -0.326977 -0.251141 -0.995150 -0.098366 0.000000 134 102 85
4 0 1 2 3
4 4 5 6 7
4 8 9 10 11
4 12 13 14 15
4 16 17 18 19
4 20 21 22 23
4 24 25 26 27
4 28 29 30 31
4 32 33 34 35
4 36 37 38 39
