ply
format ascii 1.0
comment Created by Blender 2.74 (sub 0) - www.blender.org, source file: 'figure.blend'
element vertex 96
property float x
property float y
property float z
property float nx
property float ny
property float nz
property uchar red
property uchar green
property uchar blue
element face 28
property list uchar uint vertex_indices
end_header
-0.016462 -0.287362 -0.204535 -0.325789 0.229620 -0.917135 134 102 85
-0.146521 -0.224102 -0.144628 -0.325789 0.229620 -0.917135 134 102 85
-0.148715 -0.055145 -0.099416 -0.325789 0.229620 -0.917135 134 102 85
-0.050761 -0.072128 -0.140595 -0.325789 0.229620 -0.917135 134 102 85
-0.146521 -0.224102 -0.144628 -0.926105 0.078238 -0.369064 134 102 85
-0.200393 -0.197899 -0.000000 -0.926105 0.078238 -0.369064 134 102 85
-0.189289 -0.048110 -0.000000 -0.926105 0.078238 -0.369064 134 102 85
-0.148715 -0.055145 -0.099416 -0.926105 0.078238 -0.369064 134 102 85
-0.200393 -0.197899 -0.000000 -0.926105 0.078238 0.369064 134 102 85
-0.146521 -0.224102 0.144628 -0.926105 0.078238 0.369064 134 102 85
-0.148715 -0.055145 0.099415 -0.926105 0.078238 0.369064 134 102 85
-0.189289 -0.048110 -0.000000 -0.926105 0.078238 0.369064 134 102 85
-0.146521 -0.224102 0.144628 -0.325788 0.229620 0.917135 136 104 86
-0.016461 -0.287362 0.204535 -0.325788 0.229620 0.917135 184 140 117
-0.050761 -0.072128 0.140595 -0.325788 0.229620 0.917135 134 102 85
-0.148715 -0.055145 0.099415 -0.325788 0.229620 0.917135 134 102 85
-0.016461 -0.287362 0.204535 0.471357 0.290243 0.832815 184 140 117
0.113598 -0.350621 0.144628 0.471357 0.290243 0.832815 181 138 115
0.047193 -0.089111 0.099415 0.471357 0.290243 0.832815 134 102 85
-0.050761 -0.072128 0.140595 0.471357 0.290243 0.832815 134 102 85
0.113598 -0.350621 0.144628 0.909470 0.271352 0.315013 181 138 115
0.167470 -0.376824 -0.000000 0.909470 0.271352 0.315013 185 141 118
0.087767 -0.096146 -0.000000 0.909470 0.271352 0.315013 134 102 85
0.047193 -0.089111 0.099415 0.909470 0.271352 0.315013 134 102 85
-0.148715 -0.055145 -0.099416 0.170831 0.985300 0.000001 134 102 85
0.047193 -0.089111 -0.099416 0.170831 0.985300 0.000001 134 102 85
-0.050761 -0.072128 -0.140595 0.170831 0.985300 0.000001 134 102 85
0.047193 -0.089111 0.099415 0.170832 0.985300 0.000000 134 102 85
0.087767 -0.096146 -0.000000 0.170832 0.985300 0.000000 134 102 85
0.047193 -0.089111 -0.099416 0.170832 0.985300 0.000000 134 102 85
-0.148715 -0.055145 0.099415 0.170831 0.985300 0.000001 134 102 85
-0.050761 -0.072128 0.140595 0.170831 0.985300 0.000001 134 102 85
0.047193 -0.089111 0.099415 0.170831 0.985300 0.000001 134 102 85
-0.148715 -0.055145 -0.099416 0.170831 0.985300 0.000000 134 102 85
-0.189289 -0.048110 -0.000000 0.170831 0.985300 0.000000 134 102 85
-0.148715 -0.055145 0.099415 0.170831 0.985300 0.000000 134 102 85
0.047193 -0.089111 0.099415 0.170831 0.985300 -0.000000 134 102 85
0.047193 -0.089111 -0.099416 0.170831 0.985300 -0.000000 134 102 85
0.113598 -0.350621 -0.144628 0.471357 0.290243 -0.832815 177 135 113
-0.016462 -0.287362 -0.204535 0.471357 0.290243 -0.832815 134 102 85
-0.050761 -0.072128 -0.140595 0.471357 0.290243 -0.832815 134 102 85
0.047193 -0.089111 -0.099416 0.471357 0.290243 -0.832815 134 102 85
0.167470 -0.376824 -0.000000 0.909470 0.271352 -0.315013 185 141 118
0.113598 -0.350621 -0.144628 0.909470 0.271352 -0.315013 177 135 113
0.047193 -0.089111 -0.099416 0.909470 0.271352 -0.315013 134 102 85
0.087767 -0.096146 -0.000000 0.909470 0.271352 -0.315013 134 102 85
-0.044342 -0.684989 -0.067782 -0.170833 -0.985300 -0.000002 144 109 91
-0.111128 -0.673409 -0.000000 -0.170833 -0.985300 -0.000002 146 112 93
-0.091567 -0.676801 -0.047929 -0.170833 -0.985300 -0.000002 134 102 85
-0.044342 -0.684989 0.067782 -0.170833 -0.985300 0.000002 180 137 115
-0.091567 -0.676801 0.047929 -0.170833 -0.985300 0.000002 159 121 101
-0.111128 -0.673409 -0.000000 -0.170833 -0.985300 0.000002 146 112 93
0.022444 -0.696568 -0.000000 -0.170831 -0.985300 0.000001 185 141 118
0.002883 -0.693176 0.047929 -0.170831 -0.985300 0.000001 185 141 118
-0.044342 -0.684989 0.067782 -0.170831 -0.985300 0.000001 180 137 115
-0.044342 -0.684989 -0.067782 -0.170831 -0.985300 -0.000001 144 109 91
0.002883 -0.693176 -0.047929 -0.170831 -0.985300 -0.000001 185 141 118
0.022444 -0.696568 -0.000000 -0.170831 -0.985300 -0.000001 185 141 118
-0.044342 -0.684989 -0.067782 -0.170831 -0.985300 0.000000 144 109 91
-0.044342 -0.684989 0.067782 -0.170831 -0.985300 0.000000 180 137 115
-0.111128 -0.673409 -0.000000 -0.170831 -0.985300 0.000000 146 112 93
-0.044342 -0.684989 -0.067782 -0.170832 -0.985300 0.000000 144 109 91
0.022444 -0.696568 -0.000000 -0.170832 -0.985300 0.000000 185 141 118
-0.044342 -0.684989 0.067782 -0.170832 -0.985300 0.000000 180 137 115
0.022444 -0.696568 -0.000000 0.842896 -0.380958 -0.379996 185 141 118
0.002883 -0.693176 -0.047929 0.842896 -0.380958 -0.379996 185 141 118
0.113598 -0.350621 -0.144628 0.842896 -0.380958 -0.379996 177 135 113
0.167470 -0.376824 -0.000000 0.842896 -0.380958 -0.379996 185 141 118
0.002883 -0.693176 -0.047929 0.270830 -0.335306 -0.902342 185 141 118
-0.044342 -0.684989 -0.067782 0.270830 -0.335306 -0.902342 135 103 86
-0.016462 -0.287362 -0.204535 0.270830 -0.335306 -0.902342 134 102 85
0.113598 -0.350621 -0.144628 0.270830 -0.335306 -0.902342 177 135 113
0.002883 -0.693176 0.047929 0.842896 -0.380958 0.379996 183 139 117
0.022444 -0.696568 -0.000000 0.842896 -0.380958 0.379996 180 138 115
0.167470 -0.376824 -0.000000 0.842896 -0.380958 0.379996 185 141 118
0.113598 -0.350621 0.144628 0.842896 -0.380958 0.379996 181 138 115
-0.044342 -0.684989 0.067782 0.270830 -0.335307 0.902342 180 137 115
0.002883 -0.693176 0.047929 0.270830 -0.335307 0.902342 182 138 116
0.113598 -0.350621 0.144628 0.270830 -0.335307 0.902342 181 138 115
-0.016461 -0.287362 0.204535 0.270830 -0.335307 0.902342 184 140 117
-0.091567 -0.676801 0.047929 -0.478527 -0.246602 0.842733 159 121 101
-0.044342 -0.684989 0.067782 -0.478527 -0.246602 0.842733 180 137 115
-0.016461 -0.287362 0.204535 -0.478527 -0.246602 0.842733 176 134 112
-0.146521 -0.224102 0.144628 -0.478527 -0.246602 0.842733 134 102 85
-0.111128 -0.673409 -0.000000 -0.928208 -0.178243 0.326587 146 112 93
-0.091567 -0.676801 0.047929 -0.928208 -0.178243 0.326587 159 121 101
-0.146521 -0.224102 0.144628 -0.928208 -0.178243 0.326587 134 102 85
-0.200393 -0.197899 -0.000000 -0.928208 -0.178243 0.326587 134 102 85
-0.091567 -0.676801 -0.047929 -0.928208 -0.178243 -0.326587 134 102 85
-0.111128 -0.673409 -0.000000 -0.928208 -0.178243 -0.326587 134 102 85
-0.200393 -0.197899 -0.000000 -0.928208 -0.178243 -0.326587 134 102 85
-0.146521 -0.224102 -0.144628 -0.928208 -0.178243 -0.326587 134 102 85
-0.044342 -0.684989 -0.067782 -0.478527 -0.246602 -0.842733 135 103 86
-0.091567 -0.676801 -0.047929 -0.478527 -0.246602 -0.842733 134 102 85
-0.146521 -0.224102 -0.144628 -0.478527 -0.246602 -0.842733 134 102 85
-0.016462 -0.287362 -0.204535 -0.478527 -0.246602 -0.842733 134 102 85
4 0 1 2 3
4 4 5 6 7
4 8 9 10 11
4 12 13 14 15
4 16 17 18 19
4 20 21 22 23
3 24 25 26
3 27 28 29
3 30 31 32
3 33 34 35
3 33 36 37
3 33 35 36
4 38 39 40 41
4 42 43 44 45
3 46 47 48
3 49 50 51
3 52 53 54
3 55 56 57
3 58 59 60
3 61 62 63
4 64 65 66 67
4 68 69 70 71
4 72 73 74 75
4 76 77 78 79
4 80 81 82 83
4 84 85 86 87
4 88 89 90 91
4 92 93 94 95
