ply
format ascii 1.0
comment Created by Blender 2.74 (sub 0) - www.blender.org, source file: 'figure.blend'
element vertex 108
property float x
property float y
property float z
property float nx
property float ny
property float nz
property uchar red
property uchar green
property uchar blue
element face 30
property list uchar uint vertex_indices
end_header
0.270267 0.122858 -0.000000 0.835489 -0.263206 0.482370 134 102 85
0.437302 0.653071 -0.000000 0.835489 -0.263206 0.482370 134 102 85
0.218651 0.653071 0.378715 0.835489 -0.263206 0.482370 147 112 93
0.135134 0.122858 0.234058 0.835489 -0.263206 0.482370 134 102 85
0.437302 0.653071 -0.000000 0.866025 -0.000000 0.500000 134 102 85
0.437302 1.180336 -0.000000 0.866025 -0.000000 0.500000 181 138 115
0.218651 1.180336 0.378715 0.866025 -0.000000 0.500000 185 141 118
0.218651 0.653071 0.378715 0.866025 -0.000000 0.500000 147 112 93
0.437302 1.180336 -0.000000 0.800450 0.381716 0.462140 181 138 115
0.270267 1.530604 -0.000000 0.800450 0.381716 0.462140 185 141 118
0.135134 1.530604 0.234059 0.800450 0.381716 0.462140 185 141 118
0.218651 1.180336 0.378715 0.800450 0.381716 0.462140 185 141 118
0.135134 0.122858 0.234058 -0.000000 -0.263206 0.964740 134 102 85
0.218651 0.653071 0.378715 -0.000000 -0.263206 0.964740 157 119 99
-0.218651 0.653071 0.378715 -0.000000 -0.263206 0.964740 134 102 85
-0.135134 0.122858 0.234058 -0.000000 -0.263206 0.964740 134 102 85
0.218651 0.653071 0.378715 -0.000000 -0.000000 1.000000 157 119 99
0.218651 1.180336 0.378715 -0.000000 -0.000000 1.000000 185 141 118
-0.218651 1.180336 0.378715 -0.000000 -0.000000 1.000000 134 102 85
-0.218651 0.653071 0.378715 -0.000000 -0.000000 1.000000 134 102 85
0.218651 1.180336 0.378715 -0.000000 0.381716 0.924280 185 141 118
0.135134 1.530604 0.234059 -0.000000 0.381716 0.924280 185 141 118
-0.135134 1.530604 0.234058 -0.000000 0.381716 0.924280 185 141 118
-0.218651 1.180336 0.378715 -0.000000 0.381716 0.924280 134 102 85
-0.135134 0.122858 0.234058 -0.835489 -0.263206 0.482370 134 102 85
-0.218651 0.653071 0.378715 -0.835489 -0.263206 0.482370 134 102 85
-0.437302 0.653071 -0.000000 -0.835489 -0.263206 0.482370 134 102 85
-0.270268 0.122858 -0.000000 -0.835489 -0.263206 0.482370 134 102 85
-0.218651 0.653071 0.378715 -0.866025 -0.000000 0.500000 134 102 85
-0.218651 1.180336 0.378715 -0.866025 -0.000000 0.500000 134 102 85
-0.437302 1.180337 -0.000000 -0.866025 -0.000000 0.500000 185 141 118
-0.437302 0.653071 -0.000000 -0.866025 -0.000000 0.500000 134 102 85
-0.218651 1.180336 0.378715 -0.800449 0.381717 0.462140 134 102 85
-0.135134 1.530604 0.234058 -0.800449 0.381717 0.462140 185 141 118
-0.270268 1.530604 -0.000000 -0.800449 0.381717 0.462140 185 141 118
-0.437302 1.180337 -0.000000 -0.800449 0.381717 0.462140 185 141 118
-0.270268 0.122858 -0.000000 -0.835489 -0.263206 -0.482370 134 102 85
-0.437302 0.653071 -0.000000 -0.835489 -0.263206 -0.482370 134 102 85
-0.218651 0.653071 -0.378715 -0.835489 -0.263206 -0.482370 184 140 117
-0.135134 0.122858 -0.234059 -0.835489 -0.263206 -0.482370 134 102 85
-0.437302 0.653071 -0.000000 -0.866025 -0.000000 -0.500000 134 102 85
-0.437302 1.180337 -0.000000 -0.866025 -0.000000 -0.500000 185 141 118
-0.218651 1.180336 -0.378715 -0.866025 -0.000000 -0.500000 182 138 115
-0.218651 0.653071 -0.378715 -0.866025 -0.000000 -0.500000 184 140 117
-0.437302 1.180337 -0.000000 -0.800449 0.381717 -0.462140 185 141 118
-0.270268 1.530604 -0.000000 -0.800449 0.381717 -0.462140 185 141 118
-0.135134 1.530604 -0.234059 -0.800449 0.381717 -0.462140 185 141 118
-0.218651 1.180336 -0.378715 -0.800449 0.381717 -0.462140 182 138 115
-0.135134 0.122858 -0.234059 0.000000 -0.263206 -0.964740 134 102 85
-0.218651 0.653071 -0.378715 0.000000 -0.263206 -0.964740 184 140 117
0.218651 0.653071 -0.378715 0.000000 -0.263206 -0.964740 185 141 118
0.135134 0.122858 -0.234059 0.000000 -0.263206 -0.964740 134 102 85
-0.218651 0.653071 -0.378715 0.000000 -0.000000 -1.000000 184 140 117
-0.218651 1.180336 -0.378715 0.000000 -0.000000 -1.000000 182 138 115
0.218651 1.180337 -0.378715 0.000000 -0.000000 -1.000000 182 138 116
0.218651 0.653071 -0.378715 0.000000 -0.000000 -1.000000 185 141 118
-0.218651 1.180336 -0.378715 0.000000 0.381716 -0.924279 182 138 115
-0.135134 1.530604 -0.234059 0.000000 0.381716 -0.924279 185 141 118
0.135134 1.530604 -0.234059 0.000000 0.381716 -0.924279 185 141 118
0.218651 1.180337 -0.378715 0.000000 0.381716 -0.924279 182 138 116
-0.000000 -0.011786 -0.000000 0.431833 -0.866810 0.249319 134 102 85
0.270267 0.122858 -0.000000 0.431833 -0.866810 0.249319 134 102 85
0.135134 0.122858 0.234058 0.431833 -0.866810 0.249319 134 102 85
0.270267 1.530604 -0.000000 0.390939 0.892313 0.225709 185 141 118
-0.000000 1.649013 -0.000000 0.390939 0.892313 0.225709 185 141 118
0.135134 1.530604 0.234059 0.390939 0.892313 0.225709 185 141 118
-0.000000 -0.011786 -0.000000 0.000000 -0.866810 0.498638 134 102 85
0.135134 0.122858 0.234058 0.000000 -0.866810 0.498638 134 102 85
-0.135134 0.122858 0.234058 0.000000 -0.866810 0.498638 135 103 86
0.135134 1.530604 0.234059 -0.000000 0.892313 0.451418 185 141 118
-0.000000 1.649013 -0.000000 -0.000000 0.892313 0.451418 185 141 118
-0.135134 1.530604 0.234058 -0.000000 0.892313 0.451418 185 141 118
-0.000000 -0.011786 -0.000000 -0.431833 -0.866811 0.249319 134 102 85
-0.135134 0.122858 0.234058 -0.431833 -0.866811 0.249319 134 102 85
-0.270268 0.122858 -0.000000 -0.431833 -0.866811 0.249319 134 102 85
-0.135134 1.530604 0.234058 -0.390939 0.892313 0.225709 185 141 118
-0.000000 1.649013 -0.000000 -0.390939 0.892313 0.225709 185 141 118
-0.270268 1.530604 -0.000000 -0.390939 0.892313 0.225709 185 141 118
-0.000000 -0.011786 -0.000000 -0.431833 -0.866811 -0.249319 134 102 85
-0.270268 0.122858 -0.000000 -0.431833 -0.866811 -0.249319 134 102 85
-0.135134 0.122858 -0.234059 -0.431833 -0.866811 -0.249319 134 102 85
-0.270268 1.530604 -0.000000 -0.390939 0.892313 -0.225709 185 141 118
-0.000000 1.649013 -0.000000 -0.390939 0.892313 -0.225709 185 141 118
-0.135134 1.530604 -0.234059 -0.390939 0.892313 -0.225709 185 141 118
-0.000000 -0.011786 -0.000000 0.000000 -0.866811 -0.498638 134 102 85
-0.135134 0.122858 -0.234059 0.000000 -0.866811 -0.498638 134 102 85
0.135134 0.122858 -0.234059 0.000000 -0.866811 -0.498638 134 102 85
-0.135134 1.530604 -0.234059 -0.000000 0.892313 -0.451418 185 141 118
-0.000000 1.649013 -0.000000 -0.000000 0.892313 -0.451418 185 141 118
0.135134 1.530604 -0.234059 -0.000000 0.892313 -0.451418 185 141 118
-0.000000 -0.011786 -0.000000 0.431833 -0.866811 -0.249319 134 102 85
0.135134 0.122858 -0.234059 0.431833 -0.866811 -0.249319 134 102 85
0.270267 0.122858 -0.000000 0.431833 -0.866811 -0.249319 134 102 85
0.135134 0.122858 -0.234059 0.835489 -0.263206 -0.482370 134 102 85
0.218651 0.653071 -0.378715 0.835489 -0.263206 -0.482370 185 141 118
0.437302 0.653071 -0.000000 0.835489 -0.263206 -0.482370 134 102 85
0.270267 0.122858 -0.000000 0.835489 -0.263206 -0.482370 134 102 85
0.218651 0.653071 -0.378715 0.866026 -0.000000 -0.500000 185 141 118
0.218651 1.180337 -0.378715 0.866026 -0.000000 -0.500000 182 138 116
0.437302 1.180336 -0.000000 0.866026 -0.000000 -0.500000 181 138 115
0.437302 0.653071 -0.000000 0.866026 -0.000000 -0.500000 134 102 85
0.270267 1.530604 -0.000000 0.800450 0.381716 -0.462139 185 141 118
0.437302 1.180336 -0.000000 0.800450 0.381716 -0.462139 184 140 117
0.218651 1.180337 -0.378715 0.800450 0.381716 -0.462139 182 138 116
0.135134 1.530604 -0.234059 0.800450 0.381716 -0.462139 185 141 118
0.135134 1.530604 -0.234059 0.390939 0.892313 -0.225708 185 141 118
-0.000000 1.649013 -0.000000 0.390939 0.892313 -0.225708 185 141 118
0.270267 1.530604 -0.000000 0.390939 0.892313 -0.225708 185 141 118
4 0 1 2 3
4 4 5 6 7
4 8 9 10 11
4 12 13 14 15
4 16 17 18 19
4 20 21 22 23
4 24 25 26 27
4 28 29 30 31
4 32 33 34 35
4 36 37 38 39
4 40 41 42 43
4 44 45 46 47
4 48 49 50 51
4 52 53 54 55
4 56 57 58 59
3 60 61 62
3 63 64 65
3 66 67 68
3 69 70 71
3 72 73 74
3 75 76 77
3 78 79 80
3 81 82 83
3 84 85 86
3 87 88 89
3 90 91 92
4 93 94 95 96
4 97 98 99 100
4 101 102 103 104
3 105 106 107
