ply
format ascii 1.0
comment Created by Blender 2.74 (sub 0) - www.blender.org, source file: 'figure.blend'
element vertex 56
property float x
property float y
property float z
property float nx
property float ny
property float nz
property uchar red
property uchar green
property uchar blue
element face 20
property list uchar uint vertex_indices
end_header
-0.026778 -1.345155 -0.167990 -0.382745 0.000410 -0.923854 134 102 85
-0.145544 -1.347328 -0.118787 -0.382745 0.000410 -0.923854 134 102 85
-0.136447 -0.094441 -0.122000 -0.382745 0.000410 -0.923854 134 102 85
-0.014467 -0.092210 -0.172534 -0.382745 0.000410 -0.923854 134 102 85
-0.145544 -1.347328 -0.118787 -0.923902 0.005728 -0.382586 134 102 85
-0.194739 -1.348227 -0.000000 -0.923902 0.005728 -0.382586 134 102 85
-0.186972 -0.095365 -0.000000 -0.923902 0.005728 -0.382586 134 102 85
-0.136447 -0.094441 -0.122000 -0.923902 0.005728 -0.382586 134 102 86
-0.194739 -1.348227 -0.000000 -0.923902 0.005728 0.382586 134 102 85
-0.145544 -1.347328 0.118787 -0.923902 0.005728 0.382586 134 102 85
-0.136447 -0.094441 0.122000 -0.923902 0.005728 0.382586 164 125 105
-0.186972 -0.095365 -0.000000 -0.923902 0.005728 0.382586 134 102 85
-0.145544 -1.347328 0.118787 -0.382745 0.000410 0.923854 147 112 94
-0.026778 -1.345155 0.167990 -0.382745 0.000410 0.923854 150 114 96
-0.014467 -0.092210 0.172534 -0.382745 0.000410 0.923854 185 141 118
-0.136447 -0.094441 0.122000 -0.382745 0.000410 0.923854 181 137 115
-0.026778 -1.345155 0.167990 0.382840 -0.007112 0.923787 150 114 96
0.091989 -1.342983 0.118787 0.382840 -0.007112 0.923787 163 125 104
0.107512 -0.089979 0.122000 0.382840 -0.007112 0.923787 185 141 118
-0.014467 -0.092210 0.172534 0.382840 -0.007112 0.923787 185 141 118
0.091989 -1.342983 0.118787 0.923864 -0.012427 0.382519 165 126 105
0.141184 -1.342083 -0.000000 0.923864 -0.012427 0.382519 185 141 118
0.158038 -0.089055 -0.000000 0.923864 -0.012427 0.382519 157 120 100
0.107512 -0.089979 0.122000 0.923864 -0.012427 0.382519 185 141 118
-0.136447 -0.094441 -0.122000 -0.018286 0.999833 0.000000 143 108 91
0.107512 -0.089979 -0.122000 -0.018286 0.999833 0.000000 137 104 87
-0.014467 -0.092210 -0.172534 -0.018286 0.999833 0.000000 136 104 86
0.107512 -0.089979 0.122000 -0.018286 0.999833 0.000000 185 141 118
0.158038 -0.089055 -0.000000 -0.018286 0.999833 0.000000 153 117 97
-0.136447 -0.094441 0.122000 -0.018286 0.999833 0.000000 181 137 115
-0.014467 -0.092210 0.172534 -0.018286 0.999833 0.000000 185 141 118
-0.186972 -0.095365 -0.000000 -0.018286 0.999833 0.000000 157 120 100
0.091989 -1.342983 -0.118787 0.382840 -0.007112 -0.923787 169 129 108
-0.026778 -1.345155 -0.167990 0.382840 -0.007112 -0.923787 134 102 85
-0.014467 -0.092210 -0.172534 0.382840 -0.007112 -0.923787 134 102 85
0.107512 -0.089979 -0.122000 0.382840 -0.007112 -0.923787 144 109 91
0.141184 -1.342083 -0.000000 0.923864 -0.012427 -0.382519 185 141 118
0.091989 -1.342983 -0.118787 0.923864 -0.012427 -0.382519 185 141 118
0.107512 -0.089979 -0.122000 0.923864 -0.012427 -0.382519 146 111 93
0.158038 -0.089055 -0.000000 0.923864 -0.012427 -0.382519 157 120 100
-0.026778 -1.345155 -0.167990 0.018287 -0.999833 0.000001 134 102 85
-0.194739 -1.348227 -0.000000 0.018287 -0.999833 0.000001 134 102 85
-0.145544 -1.347328 -0.118787 0.018287 -0.999833 0.000001 134 102 85
-0.026778 -1.345155 0.167990 0.018287 -0.999833 -0.000001 136 104 86
-0.145544 -1.347328 0.118787 0.018287 -0.999833 -0.000001 134 102 85
-0.194739 -1.348227 -0.000000 0.018287 -0.999833 -0.000001 134 102 85
0.141184 -1.342083 -0.000000 0.018286 -0.999833 -0.000001 173 132 110
0.091989 -1.342983 0.118787 0.018286 -0.999833 -0.000001 138 105 88
-0.026778 -1.345155 0.167990 0.018286 -0.999833 -0.000001 136 104 86
-0.026778 -1.345155 -0.167990 0.018286 -0.999833 0.000001 134 102 85
0.091989 -1.342983 -0.118787 0.018286 -0.999833 0.000001 169 129 108
0.141184 -1.342083 -0.000000 0.018286 -0.999833 0.000001 173 132 110
-0.026778 -1.345155 -0.167990 0.018286 -0.999833 -0.000000 134 102 85
-0.026778 -1.345155 0.167990 0.018286 -0.999833 -0.000000 136 104 86
-0.194739 -1.348227 -0.000000 0.018286 -0.999833 -0.000000 134 102 85
0.141184 -1.342083 -0.000000 0.018286 -0.999833 -0.000000 173 132 110
4 0 1 2 3
4 4 5 6 7
4 8 9 10 11
4 12 13 14 15
4 16 17 18 19
4 20 21 22 23
3 24 25 26
3 27 28 25
3 29 30 27
3 24 31 29
3 24 27 25
3 24 29 27
4 32 33 34 35
4 36 37 38 39
3 40 41 42
3 43 44 45
3 46 47 48
3 49 50 51
3 52 53 54
3 52 55 53
