ply
format ascii 1.0
comment Created by Blender 2.74 (sub 0) - www.blender.org, source file: 'figure.blend'
element vertex 119
property float x
property float y
property float z
property float nx
property float ny
property float nz
property uchar red
property uchar green
property uchar blue
element face 36
property list uchar uint vertex_indices
end_header
0.036092 -0.439700 -0.300776 -0.441916 0.100812 -0.891374 165 126 105
-0.137215 -0.462925 -0.212681 -0.441916 0.100812 -0.891374 134 102 85
-0.165760 -0.084989 -0.160587 -0.441916 0.100812 -0.891374 134 102 85
-0.017369 -0.065102 -0.227105 -0.441916 0.100812 -0.891374 134 102 85
-0.137215 -0.462925 -0.212681 -0.940686 -0.034880 -0.337482 134 102 85
-0.209002 -0.472546 -0.000000 -0.940686 -0.034880 -0.337482 134 102 85
-0.227225 -0.093226 -0.000000 -0.940686 -0.034880 -0.337482 134 102 85
-0.165760 -0.084989 -0.160587 -0.940686 -0.034880 -0.337482 134 102 85
-0.209002 -0.472546 -0.000000 -0.940686 -0.034880 0.337482 140 106 89
-0.137215 -0.462925 0.212680 -0.940686 -0.034880 0.337482 180 137 115
-0.165760 -0.084989 0.160587 -0.940686 -0.034880 0.337482 134 102 85
-0.227225 -0.093226 -0.000000 -0.940686 -0.034880 0.337482 134 102 85
-0.137215 -0.462925 0.212680 -0.441916 0.100812 0.891374 180 137 115
0.036092 -0.439700 0.300776 -0.441916 0.100812 0.891374 185 141 118
-0.017369 -0.065102 0.227104 -0.441916 0.100812 0.891374 134 102 85
-0.165760 -0.084989 0.160587 -0.441916 0.100812 0.891374 134 102 85
0.036092 -0.439700 0.300776 0.398348 0.220537 0.890327 185 141 118
0.209399 -0.416474 0.212680 0.398348 0.220537 0.890327 165 126 105
0.131023 -0.045216 0.160587 0.398348 0.220537 0.890327 134 102 85
-0.017369 -0.065102 0.227104 0.398348 0.220537 0.890327 135 103 86
0.209399 -0.416474 0.212680 0.913116 0.229526 0.336951 165 126 105
0.281185 -0.406854 -0.000000 0.913116 0.229526 0.336951 161 123 102
0.192488 -0.036979 -0.000000 0.913116 0.229526 0.336951 134 102 85
0.131023 -0.045216 0.160587 0.913116 0.229526 0.336951 134 102 85
-0.165760 -0.084989 -0.160587 -0.132826 0.991139 0.000000 134 102 85
0.131023 -0.045216 -0.160587 -0.132826 0.991139 0.000000 134 102 85
-0.017369 -0.065102 -0.227105 -0.132826 0.991139 0.000000 134 102 85
0.131023 -0.045216 0.160587 -0.132826 0.991139 0.000000 134 102 85
0.192488 -0.036979 -0.000000 -0.132826 0.991139 0.000000 134 102 85
-0.165760 -0.084989 0.160587 -0.132826 0.991139 -0.000000 134 102 85
-0.017369 -0.065102 0.227104 -0.132826 0.991139 -0.000000 134 102 85
-0.165760 -0.084989 -0.160587 -0.132825 0.991139 0.000000 134 102 85
-0.227225 -0.093226 -0.000000 -0.132825 0.991139 0.000000 134 102 85
-0.165760 -0.084989 0.160587 -0.132825 0.991139 0.000000 134 102 85
0.209399 -0.416474 -0.212681 0.398348 0.220537 -0.890327 134 102 85
0.036092 -0.439700 -0.300776 0.398348 0.220537 -0.890327 165 126 105
-0.017369 -0.065102 -0.227105 0.398348 0.220537 -0.890327 134 102 85
0.131023 -0.045216 -0.160587 0.398348 0.220537 -0.890327 134 102 85
0.281185 -0.406854 -0.000000 0.913116 0.229526 -0.336951 161 123 102
0.209399 -0.416474 -0.212681 0.913116 0.229526 -0.336951 135 102 85
0.131023 -0.045216 -0.160587 0.913116 0.229526 -0.336951 134 102 85
0.192488 -0.036979 -0.000000 0.913116 0.229526 -0.336951 137 105 89
0.154519 -1.713639 -0.226990 0.132825 -0.991139 -0.000000 134 102 85
0.010672 -1.732917 -0.000000 0.132825 -0.991139 -0.000000 134 102 85
0.052804 -1.727271 -0.160506 0.132825 -0.991139 -0.000000 134 102 85
0.154519 -1.713639 0.226990 0.132825 -0.991139 0.000000 134 102 85
0.052804 -1.727271 0.160506 0.132825 -0.991139 0.000000 134 102 85
0.298365 -1.694362 -0.000000 0.132827 -0.991139 0.000000 134 102 85
0.256234 -1.700008 0.160506 0.132827 -0.991139 0.000000 134 102 85
0.154519 -1.713639 0.226990 0.132827 -0.991139 0.000000 134 102 85
0.154519 -1.713639 -0.226990 0.132827 -0.991139 -0.000000 134 102 85
0.256234 -1.700008 -0.160506 0.132827 -0.991139 -0.000000 134 102 85
0.154519 -1.713639 -0.226990 0.132826 -0.991139 -0.000000 134 102 85
0.154519 -1.713639 0.226990 0.132826 -0.991139 -0.000000 134 102 85
0.010672 -1.732917 -0.000000 0.132826 -0.991139 -0.000000 134 102 85
0.298365 -1.694362 -0.000000 0.949673 0.023302 -0.312374 134 102 85
0.256234 -1.700008 -0.160506 0.949673 0.023302 -0.312374 134 102 85
0.246137 -1.239195 -0.124828 0.949673 0.023302 -0.312374 157 120 100
0.297553 -1.232305 -0.000000 0.949673 0.023302 -0.312374 184 140 117
0.297553 -1.232305 -0.000000 0.939116 0.011956 -0.343392 184 140 117
0.246137 -1.239195 -0.124828 0.939116 0.011956 -0.343392 157 120 100
0.209399 -0.416474 -0.212681 0.939116 0.011956 -0.343392 135 102 85
0.281185 -0.406854 -0.000000 0.939116 0.011956 -0.343392 161 123 102
0.256234 -1.700008 -0.160506 0.450175 0.104034 -0.886859 134 102 85
0.154519 -1.713639 -0.226990 0.450175 0.104034 -0.886859 134 102 85
0.122010 -1.255830 -0.176534 0.450175 0.104034 -0.886859 184 140 117
0.246137 -1.239195 -0.124828 0.450175 0.104034 -0.886859 157 120 100
0.246137 -1.239195 -0.124828 0.433053 -0.083736 -0.897471 157 120 100
0.122010 -1.255830 -0.176534 0.433053 -0.083736 -0.897471 184 140 117
0.036092 -0.439700 -0.300776 0.433053 -0.083736 -0.897471 165 126 105
0.209399 -0.416474 -0.212681 0.433053 -0.083736 -0.897471 134 102 85
0.256234 -1.700008 0.160506 0.949673 0.023302 0.312374 134 102 85
0.298365 -1.694362 -0.000000 0.949673 0.023302 0.312374 134 102 85
0.297553 -1.232305 -0.000000 0.949673 0.023302 0.312374 184 140 118
0.246137 -1.239195 0.124828 0.949673 0.023302 0.312374 173 131 110
0.246137 -1.239195 0.124828 0.939116 0.011956 0.343392 173 131 110
0.297553 -1.232305 -0.000000 0.939116 0.011956 0.343392 184 140 118
0.281185 -0.406854 -0.000000 0.939116 0.011956 0.343392 161 123 102
0.209399 -0.416474 0.212680 0.939116 0.011956 0.343392 165 126 105
0.154519 -1.713639 0.226990 0.450176 0.104034 0.886859 134 102 85
0.256234 -1.700008 0.160506 0.450176 0.104034 0.886859 134 102 85
0.246137 -1.239195 0.124828 0.450176 0.104034 0.886859 173 131 110
0.122010 -1.255830 0.176534 0.450176 0.104034 0.886859 185 141 118
0.122010 -1.255830 0.176534 0.433053 -0.083736 0.897470 185 141 118
0.246137 -1.239195 0.124828 0.433053 -0.083736 0.897470 173 131 110
0.209399 -0.416474 0.212680 0.433053 -0.083736 0.897470 165 126 105
0.036092 -0.439700 0.300776 0.433053 -0.083736 0.897470 185 141 118
0.052804 -1.727271 0.160506 -0.467381 0.038583 0.883214 134 102 85
0.154519 -1.713639 0.226990 -0.467381 0.038583 0.883214 134 102 85
0.122010 -1.255830 0.176534 -0.467381 0.038583 0.883214 185 141 118
-0.002117 -1.272465 0.124828 -0.467381 0.038583 0.883214 150 115 96
-0.002117 -1.272465 0.124828 -0.400094 -0.171842 0.900219 150 115 96
0.122010 -1.255830 0.176534 -0.400094 -0.171842 0.900219 185 141 118
0.036092 -0.439700 0.300776 -0.400094 -0.171842 0.900219 185 141 118
-0.137215 -0.462925 0.212680 -0.400094 -0.171842 0.900219 180 137 115
0.010672 -1.732917 -0.000000 -0.942871 -0.111317 0.314011 134 102 85
0.052804 -1.727271 0.160506 -0.942871 -0.111317 0.314011 134 102 85
-0.002117 -1.272465 0.124828 -0.942871 -0.111317 0.314011 150 115 96
-0.053532 -1.279355 -0.000000 -0.942871 -0.111317 0.314011 135 103 86
-0.053532 -1.279355 -0.000000 -0.920361 -0.184201 0.344972 135 103 86
-0.002117 -1.272465 0.124828 -0.920361 -0.184201 0.344972 150 115 96
-0.137215 -0.462925 0.212680 -0.920361 -0.184201 0.344972 180 137 115
-0.209002 -0.472546 -0.000000 -0.920361 -0.184201 0.344972 140 106 89
0.052804 -1.727271 -0.160506 -0.942871 -0.111317 -0.314011 134 102 85
0.010672 -1.732917 -0.000000 -0.942871 -0.111317 -0.314011 134 102 85
-0.053532 -1.279355 -0.000000 -0.942871 -0.111317 -0.314011 151 115 96
-0.002117 -1.272465 -0.124828 -0.942871 -0.111317 -0.314011 151 115 97
-0.002117 -1.272465 -0.124828 -0.920361 -0.184201 -0.344972 151 115 97
-0.053532 -1.279355 -0.000000 -0.920361 -0.184201 -0.344972 151 115 96
-0.209002 -0.472546 -0.000000 -0.920361 -0.184201 -0.344972 134 102 85
-0.137215 -0.462925 -0.212681 -0.920361 -0.184201 -0.344972 134 102 85
0.154519 -1.713639 -0.226990 -0.467381 0.038583 -0.883214 134 102 85
0.052804 -1.727271 -0.160506 -0.467381 0.038583 -0.883214 134 102 85
-0.002117 -1.272465 -0.124828 -0.467381 0.038583 -0.883214 151 115 97
0.122010 -1.255830 -0.176534 -0.467381 0.038583 -0.883214 184 140 117
0.122010 -1.255830 -0.176534 -0.400094 -0.171842 -0.900219 184 140 117
-0.002117 -1.272465 -0.124828 -0.400094 -0.171842 -0.900219 151 115 97
-0.137215 -0.462925 -0.212681 -0.400094 -0.171842 -0.900219 134 102 85
0.036092 -0.439700 -0.300776 -0.400094 -0.171842 -0.900219 165 126 105
4 0 1 2 3
4 4 5 6 7
4 8 9 10 11
4 12 13 14 15
4 16 17 18 19
4 20 21 22 23
3 24 25 26
3 27 28 25
3 29 30 27
3 31 32 33
3 24 27 25
3 24 29 27
4 34 35 36 37
4 38 39 40 41
3 42 43 44
3 45 46 43
3 47 48 49
3 50 51 47
3 52 53 54
3 50 47 49
4 55 56 57 58
4 59 60 61 62
4 63 64 65 66
4 67 68 69 70
4 71 72 73 74
4 75 76 77 78
4 79 80 81 82
4 83 84 85 86
4 87 88 89 90
4 91 92 93 94
4 95 96 97 98
4 99 100 101 102
4 103 104 105 106
4 107 108 109 110
4 111 112 113 114
4 115 116 117 118
