ply
format ascii 1.0
comment Created by Blender 2.74 (sub 0) - www.blender.org, source file: 'figure.blend'
element vertex 40
property float x
property float y
property float z
property float nx
property float ny
property float nz
property uchar red
property uchar green
property uchar blue
element face 10
property list uchar uint vertex_indices
end_header
-0.538617 0.000137 0.272614 -0.000000 -1.000000 0.000000 134 102 85
-0.538617 0.000137 -0.272614 -0.000000 -1.000000 0.000000 142 112 96
0.538617 0.000137 -0.272614 -0.000000 -1.000000 0.000000 134 102 85
0.538617 0.000137 0.272614 -0.000000 -1.000000 0.000000 134 102 85
-0.433482 1.100384 0.272614 0.000000 1.000000 -0.000000 134 102 85
0.433482 1.100384 0.272614 0.000000 1.000000 -0.000000 134 102 85
0.433482 1.100384 -0.272614 0.000000 1.000000 -0.000000 134 102 85
-0.433482 1.100384 -0.272614 0.000000 1.000000 -0.000000 134 102 85
-0.611223 0.550261 0.379315 -0.951566 0.307445 -0.000001 185 141 118
-0.433482 1.100384 0.272614 -0.951566 0.307445 -0.000001 134 102 85
-0.433482 1.100384 -0.272614 -0.951566 0.307445 -0.000001 134 102 85
-0.611223 0.550261 -0.379315 -0.951566 0.307445 -0.000001 184 140 117
-0.611223 0.550261 -0.379315 0.000000 0.190410 -0.981705 184 140 117
-0.433482 1.100384 -0.272614 0.000000 0.190410 -0.981705 134 102 85
0.433482 1.100384 -0.272614 0.000000 0.190410 -0.981705 134 102 85
0.611224 0.550261 -0.379315 0.000000 0.190410 -0.981705 185 141 118
0.611224 0.550261 -0.379315 0.951566 0.307444 0.000000 185 141 118
0.433482 1.100384 -0.272614 0.951566 0.307444 0.000000 134 102 85
0.433482 1.100384 0.272614 0.951566 0.307444 0.000000 135 103 86
0.611223 0.550261 0.379315 0.951566 0.307444 0.000000 173 132 110
-0.611223 0.550261 0.379315 -0.000000 -0.190410 0.981705 185 141 118
-0.538617 0.000137 0.272614 -0.000000 -0.190410 0.981705 134 102 85
0.538617 0.000137 0.272614 -0.000000 -0.190410 0.981705 134 102 85
0.611223 0.550261 0.379315 -0.000000 -0.190410 0.981705 185 141 118
-0.433482 1.100384 0.272614 -0.000000 0.190410 0.981705 134 102 85
-0.611223 0.550261 0.379315 -0.000000 0.190410 0.981705 185 141 118
0.611223 0.550261 0.379315 -0.000000 0.190410 0.981705 185 141 118
0.433482 1.100384 0.272614 -0.000000 0.190410 0.981705 135 103 86
0.538617 0.000137 -0.272614 0.991403 -0.130847 0.000000 134 102 85
0.611224 0.550261 -0.379315 0.991403 -0.130847 0.000000 185 141 118
0.611223 0.550261 0.379315 0.991403 -0.130847 0.000000 173 132 110
0.538617 0.000137 0.272614 0.991403 -0.130847 0.000000 134 102 85
-0.538617 0.000137 -0.272614 0.000000 -0.190410 -0.981705 134 102 85
-0.611223 0.550261 -0.379315 0.000000 -0.190410 -0.981705 184 140 117
0.611224 0.550261 -0.379315 0.000000 -0.190410 -0.981705 185 141 118
0.538617 0.000137 -0.272614 0.000000 -0.190410 -0.981705 134 102 85
-0.538617 0.000137 0.272614 -0.991403 -0.130847 -0.000000 134 102 85
-0.611223 0.550261 0.379315 -0.991403 -0.130847 -0.000000 185 141 118
-0.611223 0.550261 -0.379315 -0.991403 -0.130847 -0.000000 184 140 117
-0.538617 0.000137 -0.272614 -0.991403 -0.130847 -0.000000 134 102 85
4 0 1 2 3
4 4 5 6 7
4 8 9 10 11
4 12 13 14 15
4 16 17 18 19
4 20 21 22 23
4 24 25 26 27
4 28 29 30 31
4 32 33 34 35
4 36 37 38 39
