ply
format ascii 1.0
comment Created by Blender 2.74 (sub 0) - www.blender.org, source file: 'figure.blend'
element vertex 58
property float x
property float y
property float z
property float nx
property float ny
property float nz
property uchar red
property uchar green
property uchar blue
element face 20
property list uchar uint vertex_indices
end_header
-0.211819 -1.566218 -0.182674 0.373083 -0.093123 -0.923113 138 106 89
-0.012727 -0.137711 -0.246316 0.373083 -0.093123 -0.923113 134 102 85
0.159778 -0.161753 -0.174172 0.373083 -0.093123 -0.923113 134 102 85
-0.083886 -1.584048 -0.129170 0.373083 -0.093123 -0.923113 135 103 86
-0.083886 -1.584048 -0.129170 0.908653 -0.167766 -0.382366 134 102 85
0.159778 -0.161753 -0.174172 0.908653 -0.167766 -0.382366 134 102 85
0.231232 -0.171712 -0.000000 0.908653 -0.167766 -0.382366 134 102 85
-0.030894 -1.591434 -0.000000 0.908653 -0.167766 -0.382366 134 102 85
-0.030894 -1.591434 -0.000000 0.908653 -0.167766 0.382366 137 104 87
0.231232 -0.171712 -0.000000 0.908653 -0.167766 0.382366 134 102 85
0.159778 -0.161753 0.174172 0.908653 -0.167766 0.382366 139 107 89
-0.083886 -1.584048 0.129170 0.908653 -0.167766 0.382366 138 105 87
-0.083886 -1.584048 0.129170 0.373083 -0.093123 0.923113 138 105 87
0.159778 -0.161753 0.174172 0.373083 -0.093123 0.923113 139 107 89
-0.012727 -0.137711 0.246316 0.373083 -0.093123 0.923113 185 141 118
-0.211819 -1.566218 0.182674 0.373083 -0.093123 0.923113 173 132 110
-0.211819 -1.566218 0.182674 -0.384328 0.012438 0.923113 173 132 110
-0.012727 -0.137711 0.246316 -0.384328 0.012438 0.923113 185 141 118
-0.185231 -0.113669 0.174172 -0.384328 0.012438 0.923113 177 135 113
-0.339753 -1.548388 0.129170 -0.384328 0.012438 0.923113 146 112 93
-0.339753 -1.548388 0.129170 -0.919899 0.087081 0.382365 144 111 92
-0.185231 -0.113669 0.174172 -0.919899 0.087081 0.382365 177 135 113
-0.256685 -0.103710 -0.000000 -0.919899 0.087081 0.382365 158 120 100
-0.392745 -1.541002 -0.000000 -0.919899 0.087081 0.382365 153 116 97
0.159778 -0.161753 -0.174172 0.138038 0.990427 0.000000 145 111 92
0.159778 -0.161753 0.174172 0.138038 0.990427 0.000000 140 107 89
0.231232 -0.171712 -0.000000 0.138038 0.990427 0.000000 134 102 85
-0.185231 -0.113669 0.174172 0.138037 0.990427 0.000000 177 135 113
-0.012727 -0.137711 0.246316 0.138037 0.990427 0.000000 185 141 118
0.159778 -0.161753 0.174172 0.138037 0.990427 0.000000 140 107 89
-0.185231 -0.113669 -0.174172 0.138037 0.990427 0.000000 171 130 109
-0.256685 -0.103710 -0.000000 0.138037 0.990427 0.000000 158 120 100
0.159778 -0.161753 -0.174172 0.138037 0.990427 -0.000000 145 111 92
-0.012727 -0.137711 -0.246316 0.138037 0.990427 -0.000000 139 104 87
-0.012727 -0.137711 -0.246316 -0.384328 0.012438 -0.923113 134 102 85
-0.211819 -1.566218 -0.182674 -0.384328 0.012438 -0.923113 138 106 89
-0.339753 -1.548388 -0.129170 -0.384328 0.012438 -0.923113 135 103 86
-0.185231 -0.113669 -0.174172 -0.384328 0.012438 -0.923113 171 130 109
-0.392745 -1.541002 -0.000000 -0.919899 0.087081 -0.382365 153 116 97
-0.256685 -0.103710 -0.000000 -0.919899 0.087081 -0.382365 158 120 100
-0.185231 -0.113669 -0.174172 -0.919899 0.087081 -0.382365 171 130 109
-0.339753 -1.548388 -0.129170 -0.919899 0.087081 -0.382365 135 103 86
-0.211819 -1.566218 -0.182674 -0.138038 -0.990427 -0.000001 148 112 94
-0.392745 -1.541002 -0.000000 -0.138038 -0.990427 -0.000001 152 116 97
-0.339753 -1.548388 -0.129170 -0.138038 -0.990427 -0.000001 134 102 85
-0.211819 -1.566218 0.182674 -0.138038 -0.990427 0.000001 158 121 100
-0.339753 -1.548388 0.129170 -0.138038 -0.990427 0.000001 144 111 92
-0.392745 -1.541002 -0.000000 -0.138038 -0.990427 0.000001 152 116 97
-0.030894 -1.591434 -0.000000 -0.138036 -0.990427 0.000001 134 102 85
-0.083886 -1.584048 0.129170 -0.138036 -0.990427 0.000001 134 102 85
-0.211819 -1.566218 0.182674 -0.138036 -0.990427 0.000001 158 121 100
-0.211819 -1.566218 -0.182674 -0.138036 -0.990427 -0.000001 148 112 94
-0.083886 -1.584048 -0.129170 -0.138036 -0.990427 -0.000001 143 109 91
-0.030894 -1.591434 -0.000000 -0.138036 -0.990427 -0.000001 134 102 85
-0.211819 -1.566218 -0.182674 -0.138037 -0.990427 -0.000000 148 112 94
-0.211819 -1.566218 0.182674 -0.138037 -0.990427 -0.000000 158 121 100
-0.392745 -1.541002 -0.000000 -0.138037 -0.990427 -0.000000 152 116 97
-0.030894 -1.591434 -0.000000 -0.138037 -0.990427 0.000000 134 102 85
4 0 1 2 3
4 4 5 6 7
4 8 9 10 11
4 12 13 14 15
4 16 17 18 19
4 20 21 22 23
3 24 25 26
3 27 28 29
3 30 31 27
3 32 33 30
3 32 27 29
3 32 30 27
4 34 35 36 37
4 38 39 40 41
3 42 43 44
3 45 46 47
3 48 49 50
3 51 52 53
3 54 55 56
3 54 57 55
