ply
format ascii 1.0
comment Created by Blender 2.74 (sub 0) - www.blender.org, source file: 'figure.blend'
element vertex 116
property float x
property float y
property float z
property float nx
property float ny
property float nz
property uchar red
property uchar green
property uchar blue
element face 36
property list uchar uint vertex_indices
end_header
-0.032389 -0.478489 -0.300776 0.384314 -0.001849 -0.923201 185 141 118
-0.001101 -0.096738 -0.288516 0.384314 -0.001849 -0.923201 134 102 85
0.201765 -0.123924 -0.204012 0.384314 -0.001849 -0.923201 134 102 85
0.179098 -0.506830 -0.212681 0.384314 -0.001849 -0.923201 134 102 85
0.179098 -0.506830 -0.212681 0.922765 -0.045962 -0.382613 134 102 85
0.201765 -0.123924 -0.204012 0.922765 -0.045962 -0.382613 134 102 85
0.285794 -0.135185 -0.000000 0.922765 -0.045962 -0.382613 135 103 86
0.266698 -0.518570 -0.000000 0.922765 -0.045962 -0.382613 135 103 86
0.266698 -0.518570 -0.000000 0.922765 -0.045962 0.382613 135 103 86
0.285794 -0.135185 -0.000000 0.922765 -0.045962 0.382613 135 103 86
0.201765 -0.123924 0.204011 0.922765 -0.045962 0.382613 134 102 85
0.179098 -0.506830 0.212680 0.922765 -0.045962 0.382613 181 138 115
0.179098 -0.506830 0.212680 0.384314 -0.001849 0.923201 181 138 115
0.201765 -0.123924 0.204011 0.384314 -0.001849 0.923201 134 102 85
-0.001102 -0.096738 0.288516 0.384314 -0.001849 0.923201 134 102 85
-0.032389 -0.478489 0.300776 0.384314 -0.001849 0.923201 184 140 117
-0.032389 -0.478489 0.300776 -0.376892 0.060571 0.924275 184 140 117
-0.001102 -0.096738 0.288516 -0.376892 0.060571 0.924275 134 102 85
-0.203968 -0.069551 0.204011 -0.376892 0.060571 0.924275 134 102 85
-0.243875 -0.450147 0.212680 -0.376892 0.060571 0.924275 185 141 118
-0.243875 -0.450147 0.212680 -0.917480 0.104941 0.383691 185 141 118
-0.203968 -0.069551 0.204011 -0.917480 0.104941 0.383691 134 102 85
-0.287997 -0.058290 -0.000000 -0.917480 0.104941 0.383691 134 102 85
-0.331475 -0.438407 -0.000000 -0.917480 0.104941 0.383691 182 139 116
0.201765 -0.123924 -0.204012 0.132826 0.991139 0.000000 134 102 85
0.201765 -0.123924 0.204011 0.132826 0.991139 0.000000 134 102 85
0.285794 -0.135185 -0.000000 0.132826 0.991139 0.000000 134 102 85
-0.203968 -0.069551 0.204011 0.132826 0.991139 0.000000 134 102 85
-0.001102 -0.096738 0.288516 0.132826 0.991139 0.000000 134 102 85
-0.203968 -0.069551 -0.204012 0.132826 0.991139 0.000000 134 102 85
-0.287997 -0.058290 -0.000000 0.132826 0.991139 0.000000 134 102 85
-0.001101 -0.096738 -0.288516 0.132826 0.991139 0.000000 134 102 85
-0.243875 -0.450147 -0.212681 -0.376892 0.060571 -0.924275 174 133 111
-0.203968 -0.069551 -0.204012 -0.376892 0.060571 -0.924275 134 102 85
-0.001101 -0.096738 -0.288516 -0.376892 0.060571 -0.924275 134 102 85
-0.032389 -0.478489 -0.300776 -0.376892 0.060571 -0.924275 185 141 118
-0.331475 -0.438407 -0.000000 -0.917480 0.104941 -0.383691 182 138 116
-0.287997 -0.058290 -0.000000 -0.917480 0.104941 -0.383691 134 102 85
-0.203968 -0.069551 -0.204012 -0.917480 0.104941 -0.383691 134 102 85
-0.243875 -0.450147 -0.212681 -0.917480 0.104941 -0.383691 174 133 111
-0.155178 -1.612371 -0.280917 -0.132824 -0.991140 0.000001 134 102 85
-0.333199 -1.588514 -0.000000 -0.132824 -0.991140 0.000001 134 102 85
-0.281058 -1.595502 -0.198638 -0.132824 -0.991140 0.000001 134 102 85
-0.155178 -1.612371 0.280917 -0.132824 -0.991140 -0.000001 134 102 85
-0.281058 -1.595502 0.198638 -0.132824 -0.991140 -0.000001 134 102 85
-0.333199 -1.588514 -0.000000 -0.132824 -0.991140 -0.000001 134 102 85
0.022843 -1.636228 -0.000000 -0.132826 -0.991139 -0.000000 134 102 85
-0.029298 -1.629241 0.198638 -0.132826 -0.991139 -0.000000 134 102 85
-0.155178 -1.612371 0.280917 -0.132826 -0.991139 -0.000000 134 102 85
-0.155178 -1.612371 -0.280917 -0.132826 -0.991139 0.000000 134 102 85
-0.029298 -1.629241 -0.198638 -0.132826 -0.991139 0.000000 134 102 85
-0.333199 -1.588514 -0.000000 -0.132826 -0.991139 -0.000000 134 102 85
-0.333199 -1.588514 -0.000000 -0.950618 -0.002728 -0.310351 134 102 85
-0.346985 -1.220339 -0.000000 -0.950618 -0.002728 -0.310351 185 141 118
-0.285488 -1.228580 -0.149305 -0.950618 -0.002728 -0.310351 170 130 108
-0.281058 -1.595502 -0.198638 -0.950618 -0.002728 -0.310351 134 102 85
-0.346985 -1.220339 -0.000000 -0.924126 0.018330 -0.381648 185 141 118
-0.331475 -0.438407 -0.000000 -0.924126 0.018330 -0.381648 182 138 116
-0.243875 -0.450147 -0.212681 -0.924126 0.018330 -0.381648 174 133 111
-0.285488 -1.228580 -0.149305 -0.924126 0.018330 -0.381648 170 130 108
-0.137022 -1.248477 -0.211149 -0.443572 0.152269 -0.883209 185 141 118
-0.155178 -1.612371 -0.280917 -0.443572 0.152269 -0.883209 134 102 85
-0.281058 -1.595502 -0.198638 -0.443572 0.152269 -0.883209 134 102 85
-0.285488 -1.228580 -0.149305 -0.443572 0.152269 -0.883209 170 130 108
-0.285488 -1.228580 -0.149305 -0.390121 -0.053980 -0.919180 170 130 108
-0.243875 -0.450147 -0.212681 -0.390121 -0.053980 -0.919180 174 133 111
-0.032389 -0.478489 -0.300776 -0.390121 -0.053980 -0.919180 185 141 118
-0.137022 -1.248477 -0.211149 -0.390121 -0.053980 -0.919180 185 141 118
-0.281058 -1.595502 0.198638 -0.950618 -0.002728 0.310351 134 102 85
-0.285488 -1.228580 0.149304 -0.950618 -0.002728 0.310351 184 141 118
-0.346985 -1.220339 -0.000000 -0.950618 -0.002728 0.310351 185 141 118
-0.333199 -1.588514 -0.000000 -0.950618 -0.002728 0.310351 134 102 85
-0.285488 -1.228580 0.149304 -0.924126 0.018330 0.381648 184 141 118
-0.243875 -0.450147 0.212680 -0.924126 0.018330 0.381648 185 141 118
-0.331475 -0.438407 -0.000000 -0.924126 0.018330 0.381648 182 139 116
-0.346985 -1.220339 -0.000000 -0.924126 0.018330 0.381648 185 141 118
-0.155178 -1.612371 0.280917 -0.443572 0.152269 0.883209 134 102 85
-0.137022 -1.248477 0.211148 -0.443572 0.152269 0.883209 185 141 118
-0.285488 -1.228580 0.149304 -0.443572 0.152269 0.883209 184 141 118
-0.281058 -1.595502 0.198638 -0.443572 0.152269 0.883209 134 102 85
-0.137022 -1.248477 0.211148 -0.390121 -0.053980 0.919180 185 141 118
-0.032389 -0.478489 0.300776 -0.390121 -0.053980 0.919180 184 140 117
-0.243875 -0.450147 0.212680 -0.390121 -0.053980 0.919180 185 141 118
-0.285488 -1.228580 0.149304 -0.390121 -0.053980 0.919180 184 141 118
-0.029298 -1.629241 0.198638 0.473498 0.105227 0.874487 134 102 85
0.011444 -1.268373 0.149304 0.473498 0.105227 0.874487 134 102 85
-0.137022 -1.248477 0.211148 0.473498 0.105227 0.874487 185 141 118
-0.155178 -1.612371 0.280917 0.473498 0.105227 0.874487 134 102 85
0.011444 -1.268373 0.149304 0.361903 -0.156156 0.919044 134 102 85
0.179098 -0.506830 0.212680 0.361903 -0.156156 0.919044 181 138 115
-0.032389 -0.478489 0.300776 0.361903 -0.156156 0.919044 184 140 117
-0.137022 -1.248477 0.211148 0.361903 -0.156156 0.919044 185 141 118
0.022843 -1.636228 -0.000000 0.944769 -0.097700 0.312837 134 102 85
0.072941 -1.276614 -0.000000 0.944769 -0.097700 0.312837 134 102 85
0.011444 -1.268373 0.149304 0.944769 -0.097700 0.312837 134 102 85
-0.029298 -1.629241 0.198638 0.944769 -0.097700 0.312837 134 102 85
0.072941 -1.276614 -0.000000 0.895572 -0.228910 0.381511 134 102 85
0.266698 -0.518570 -0.000000 0.895572 -0.228910 0.381511 135 103 86
0.179098 -0.506830 0.212680 0.895572 -0.228910 0.381511 181 138 115
0.011444 -1.268373 0.149304 0.895572 -0.228910 0.381511 134 102 85
-0.029298 -1.629241 -0.198638 0.944769 -0.097700 -0.312837 134 102 85
0.011444 -1.268373 -0.149305 0.944769 -0.097700 -0.312837 184 140 117
0.072941 -1.276614 -0.000000 0.944769 -0.097700 -0.312837 134 102 85
0.022843 -1.636228 -0.000000 0.944769 -0.097700 -0.312837 134 102 85
0.011444 -1.268373 -0.149305 0.895572 -0.228910 -0.381511 184 140 117
0.179098 -0.506830 -0.212681 0.895572 -0.228910 -0.381511 134 102 85
0.266698 -0.518570 -0.000000 0.895572 -0.228910 -0.381511 135 103 86
0.072941 -1.276614 -0.000000 0.895572 -0.228910 -0.381511 134 102 85
-0.155178 -1.612371 -0.280917 0.473498 0.105227 -0.874487 134 102 85
-0.137022 -1.248477 -0.211149 0.473498 0.105227 -0.874487 185 141 118
0.011444 -1.268373 -0.149305 0.473498 0.105227 -0.874487 185 141 118
-0.029298 -1.629241 -0.198638 0.473498 0.105227 -0.874487 134 102 85
-0.137022 -1.248477 -0.211149 0.361903 -0.156156 -0.919044 185 141 118
-0.032389 -0.478489 -0.300776 0.361903 -0.156156 -0.919044 185 141 118
0.179098 -0.506830 -0.212681 0.361903 -0.156156 -0.919044 134 102 85
0.011444 -1.268373 -0.149305 0.361903 -0.156156 -0.919044 185 141 118
4 0 1 2 3
4 4 5 6 7
4 8 9 10 11
4 12 13 14 15
4 16 17 18 19
4 20 21 22 23
3 24 25 26
3 27 28 25
3 29 30 27
3 24 31 29
3 24 27 25
3 24 29 27
4 32 33 34 35
4 36 37 38 39
3 40 41 42
3 43 44 45
3 46 47 48
3 49 50 46
3 49 48 51
3 49 46 48
4 52 53 54 55
4 56 57 58 59
4 60 61 62 63
4 64 65 66 67
4 68 69 70 71
4 72 73 74 75
4 76 77 78 79
4 80 81 82 83
4 84 85 86 87
4 88 89 90 91
4 92 93 94 95
4 96 97 98 99
4 100 101 102 103
4 104 105 106 107
4 108 109 110 111
4 112 113 114 115
