ply
format ascii 1.0
comment Created by Blender 2.74 (sub 0) - www.blender.org, source file: 'figure.blend'
element vertex 96
property float x
property float y
property float z
property float nx
property float ny
property float nz
property uchar red
property uchar green
property uchar blue
element face 28
property list uchar uint vertex_indices
end_header
-0.000000 0.144221 0.274342 -0.000000 -1.000000 0.000000 134 102 85
0.000000 0.144221 -0.274342 -0.000000 -1.000000 0.000000 134 102 85
0.403753 0.144221 -0.274342 -0.000000 -1.000000 0.000000 134 102 85
0.403753 0.144221 0.274342 -0.000000 -1.000000 0.000000 134 102 85
0.000000 1.751456 0.274342 0.000000 1.000000 -0.000000 185 141 118
0.256867 1.751456 0.274342 0.000000 1.000000 -0.000000 184 140 117
0.256867 1.751456 -0.274342 0.000000 1.000000 -0.000000 185 141 118
0.000000 1.751456 -0.274342 0.000000 1.000000 -0.000000 185 141 118
-0.600289 1.617431 0.325025 -0.363557 0.931572 -0.000000 140 107 89
-0.256867 1.751456 0.274342 -0.363557 0.931572 -0.000000 185 141 118
-0.256867 1.751456 -0.274342 -0.363557 0.931572 -0.000000 185 141 118
-0.600288 1.617431 -0.325025 -0.363557 0.931572 -0.000000 185 141 118
0.000000 1.617431 -0.325025 0.000000 0.353717 -0.935353 166 126 106
0.000000 1.751456 -0.274342 0.000000 0.353717 -0.935353 185 141 118
0.256867 1.751456 -0.274342 0.000000 0.353717 -0.935353 185 141 118
0.600289 1.617431 -0.325025 0.000000 0.353717 -0.935353 176 134 112
0.600289 1.617431 -0.325025 0.363557 0.931572 0.000000 176 134 112
0.256867 1.751456 -0.274342 0.363557 0.931572 0.000000 185 141 118
0.256867 1.751456 0.274342 0.363557 0.931572 0.000000 184 140 117
0.600289 1.617431 0.325025 0.363557 0.931572 0.000000 175 133 113
-0.000000 1.014205 0.374646 -0.000000 -0.114535 0.993419 134 102 85
-0.000000 0.144221 0.274342 -0.000000 -0.114535 0.993419 134 102 85
0.403753 0.144221 0.274342 -0.000000 -0.114535 0.993419 134 102 85
0.611223 1.014205 0.374646 -0.000000 -0.114535 0.993419 134 102 85
-0.000000 1.466469 0.353723 -0.000000 0.046214 0.998932 134 102 85
-0.000000 1.014205 0.374646 -0.000000 0.046214 0.998932 134 102 85
0.611223 1.014205 0.374646 -0.000000 0.046214 0.998932 134 102 85
0.723183 1.466469 0.353723 -0.000000 0.046214 0.998932 135 102 85
0.403753 0.144221 -0.274342 0.972723 -0.231971 0.000000 135 103 85
0.611224 1.014205 -0.374646 0.972723 -0.231971 0.000000 163 124 104
0.611223 1.014205 0.374646 0.972723 -0.231971 0.000000 134 102 85
0.403753 0.144221 0.274342 0.972723 -0.231971 0.000000 134 102 85
0.000000 0.144221 -0.274342 0.000000 -0.114536 -0.993419 185 141 118
0.000000 1.014205 -0.374646 0.000000 -0.114536 -0.993419 147 112 94
0.611224 1.014205 -0.374646 0.000000 -0.114536 -0.993419 163 124 104
0.403753 0.144221 -0.274342 0.000000 -0.114536 -0.993419 135 103 85
-0.403753 0.144221 0.274342 -0.972723 -0.231971 -0.000000 139 105 88
-0.611223 1.014205 0.374646 -0.972723 -0.231971 -0.000000 134 102 85
-0.611223 1.014205 -0.374646 -0.972723 -0.231971 -0.000000 185 141 118
-0.403753 0.144221 -0.274342 -0.972723 -0.231971 -0.000000 143 109 91
-0.000000 1.617431 0.325025 -0.000000 0.186754 0.982407 141 107 89
-0.000000 1.466469 0.353723 -0.000000 0.186754 0.982407 134 102 85
0.723183 1.466469 0.353723 -0.000000 0.186754 0.982407 135 102 85
0.600289 1.617431 0.325025 -0.000000 0.186754 0.982407 176 134 114
0.611224 1.014205 -0.374646 0.970699 -0.240300 0.000001 163 124 104
0.723183 1.466469 -0.353723 0.970699 -0.240300 0.000001 137 105 87
0.723183 1.466469 0.353723 0.970699 -0.240300 0.000001 135 102 85
0.611223 1.014205 0.374646 0.970699 -0.240300 0.000001 134 102 85
0.000000 1.014205 -0.374646 0.000000 0.046214 -0.998932 147 112 94
0.000000 1.466469 -0.353723 0.000000 0.046214 -0.998932 136 104 87
0.723183 1.466469 -0.353723 0.000000 0.046214 -0.998932 137 105 87
0.611224 1.014205 -0.374646 0.000000 0.046214 -0.998932 163 124 104
-0.611223 1.014205 0.374646 -0.970699 -0.240300 -0.000001 134 102 85
-0.723183 1.466469 0.353722 -0.970699 -0.240300 -0.000001 134 102 85
-0.723183 1.466469 -0.353723 -0.970699 -0.240300 -0.000001 185 141 118
-0.611223 1.014205 -0.374646 -0.970699 -0.240300 -0.000001 185 141 118
0.000000 1.751456 0.274342 -0.000000 0.353716 0.935353 185 141 118
-0.000000 1.617431 0.325025 -0.000000 0.353716 0.935353 141 107 89
0.600289 1.617431 0.325025 -0.000000 0.353716 0.935353 176 134 114
0.256867 1.751456 0.274342 -0.000000 0.353716 0.935353 184 140 117
0.723183 1.466469 -0.353723 0.775517 0.631327 0.000000 137 105 87
0.600289 1.617431 -0.325025 0.775517 0.631327 0.000000 176 134 112
0.600289 1.617431 0.325025 0.775517 0.631327 0.000000 175 133 113
0.723183 1.466469 0.353723 0.775517 0.631327 0.000000 135 102 85
0.000000 1.466469 -0.353723 0.000000 0.186753 -0.982407 136 104 87
0.000000 1.617431 -0.325025 0.000000 0.186753 -0.982407 166 126 106
0.600289 1.617431 -0.325025 0.000000 0.186753 -0.982407 176 134 112
0.723183 1.466469 -0.353723 0.000000 0.186753 -0.982407 137 105 87
-0.723183 1.466469 0.353722 -0.775517 0.631327 -0.000001 134 102 85
-0.600289 1.617431 0.325025 -0.775517 0.631327 -0.000001 140 107 89
-0.600288 1.617431 -0.325025 -0.775517 0.631327 -0.000001 185 141 118
-0.723183 1.466469 -0.353723 -0.775517 0.631327 -0.000001 185 141 118
-0.723183 1.466469 -0.353723 0.000000 0.186752 -0.982407 185 141 118
-0.600288 1.617431 -0.325025 0.000000 0.186752 -0.982407 185 141 118
0.000000 1.617431 -0.325025 0.000000 0.186752 -0.982407 166 126 106
0.000000 1.466469 -0.353723 0.000000 0.186752 -0.982407 136 104 87
-0.256867 1.751456 0.274342 -0.000000 0.353716 0.935353 185 141 118
-0.600289 1.617431 0.325025 -0.000000 0.353716 0.935353 140 107 89
-0.611223 1.014205 -0.374646 0.000000 0.046214 -0.998932 185 141 118
-0.723183 1.466469 -0.353723 0.000000 0.046214 -0.998932 185 141 118
-0.600289 1.617431 0.325025 -0.000000 0.186754 0.982407 140 107 89
-0.723183 1.466469 0.353722 -0.000000 0.186754 0.982407 134 102 85
-0.403753 0.144221 -0.274342 0.000000 -0.114536 -0.993419 143 109 91
-0.611223 1.014205 -0.374646 0.000000 -0.114536 -0.993419 185 141 118
-0.723183 1.466469 0.353722 -0.000000 0.046214 0.998932 134 102 85
-0.611223 1.014205 0.374646 -0.000000 0.046214 0.998932 134 102 85
-0.611223 1.014205 0.374646 -0.000000 -0.114535 0.993419 134 102 85
-0.403753 0.144221 0.274342 -0.000000 -0.114535 0.993419 138 105 87
-0.600288 1.617431 -0.325025 0.000000 0.353716 -0.935353 185 141 118
-0.256867 1.751456 -0.274342 0.000000 0.353716 -0.935353 185 141 118
0.000000 1.751456 -0.274342 0.000000 0.353716 -0.935353 185 141 118
0.000000 1.617431 -0.325025 0.000000 0.353716 -0.935353 166 126 106
-0.256867 1.751456 0.274342 0.000000 1.000000 -0.000000 185 141 118
-0.256867 1.751456 -0.274342 0.000000 1.000000 -0.000000 185 141 118
-0.403753 0.144221 0.274342 -0.000000 -1.000000 0.000000 134 102 85
-0.403753 0.144221 -0.274342 -0.000000 -1.000000 0.000000 134 102 85
4 0 1 2 3
4 4 5 6 7
4 8 9 10 11
4 12 13 14 15
4 16 17 18 19
4 20 21 22 23
4 24 25 26 27
4 28 29 30 31
4 32 33 34 35
4 36 37 38 39
4 40 41 42 43
4 44 45 46 47
4 48 49 50 51
4 52 53 54 55
4 56 57 58 59
4 60 61 62 63
4 64 65 66 67
4 68 69 70 71
4 72 73 74 75
4 76 77 57 56
4 78 79 49 48
4 80 81 41 40
4 82 83 33 32
4 84 85 25 24
4 86 87 21 20
4 88 89 90 91
4 92 4 7 93
4 94 95 1 0
